<svg xmlns="http://www.w3.org/2000/svg" xmlns:xlink="http://www.w3.org/1999/xlink" width="282" height="18" viewBox="0 0 282 18">
    <defs>
        <path id="b0xz1ak1ea" d="M0 17.834L281.939 17.834 281.939 0 0 0z"/>
    </defs>
    <g fill="none" fill-rule="evenodd">
        <g>
            <g>
                <g>
                    <g transform="translate(-949 -5133) translate(130 5042) translate(0 65) translate(819 26)">
                        <path fill="#FFF" d="M80.13 15.346c-1.683-1.636-2.513-3.733-2.513-6.29 0-2.581.853-4.701 2.558-6.36C81.903 1.014 83.977.184 86.419.184c3.065 0 5.83 1.406 7.328 3.526l-2.282 2.235c-1.336-1.636-2.949-2.466-4.861-2.466-1.544 0-2.834.53-3.871 1.59-1.037 1.037-1.567 2.373-1.567 3.986 0 1.567.507 2.858 1.544 3.894 1.037 1.037 2.327 1.544 3.87 1.544 1.982 0 3.641-.83 4.954-2.489l2.351 2.143c-1.567 2.143-4.355 3.618-7.512 3.618-2.465 0-4.562-.807-6.244-2.42"/>
                        <mask id="m3p5isyypb" fill="#fff">
                            <use xlink:href="#b0xz1ak1ea"/>
                        </mask>
                        <path fill="#FFF" d="M95.223 17.512L98.472 17.512 98.472 0 95.223 0zM107.015 14.816c.99 0 1.797-.346 2.465-1.037.668-.715 1.014-1.567 1.014-2.558 0-.99-.346-1.843-1.014-2.535-.668-.69-1.474-1.036-2.465-1.036-.991 0-1.82.345-2.489 1.036-.668.692-.99 1.545-.99 2.535 0 .991.322 1.843.99 2.558.668.691 1.498 1.037 2.489 1.037m-4.839-8.272c1.267-1.29 2.88-1.936 4.839-1.936 1.958 0 3.571.645 4.838 1.936 1.268 1.267 1.89 2.834 1.89 4.677 0 1.867-.622 3.433-1.89 4.7-1.267 1.268-2.88 1.913-4.838 1.913-1.959 0-3.572-.645-4.839-1.913-1.267-1.267-1.89-2.833-1.89-4.7 0-1.843.623-3.41 1.89-4.677M115.404 12.212V4.954h3.25v7.258c0 1.59.944 2.627 2.51 2.627 1.567 0 2.512-1.037 2.512-2.627V4.954h3.249v7.258c0 3.526-2.166 5.599-5.76 5.599-3.572 0-5.761-2.073-5.761-5.599M137.863 8.664c-.646-.715-1.475-1.06-2.512-1.06s-1.866.345-2.534 1.06c-.646.69-.968 1.543-.968 2.557 0 1.037.322 1.89.968 2.604.668.691 1.497 1.037 2.534 1.037 1.037 0 1.866-.346 2.512-1.037.645-.714.967-1.567.967-2.604 0-1.014-.322-1.866-.967-2.557zM138.669 0h3.249V17.51h-3.18v-1.543c-1.014 1.22-2.304 1.843-3.894 1.843-1.774 0-3.272-.622-4.447-1.866-1.175-1.267-1.774-2.834-1.774-4.724 0-1.866.6-3.433 1.774-4.7 1.198-1.268 2.673-1.89 4.447-1.89 1.52 0 2.788.6 3.825 1.774V0zM30.507 7.264c-.644 0-.885.095-1.289.457-.422.38-1.298 1.283-1.495 1.573-.095.137-.056.265.024.399.471.802 1.33 1.042 2.543 1.042h9.271c.645 0 .887-.095 1.29-.457.421-.379 1.297-1.282 1.495-1.572.095-.138.055-.266-.024-.4-.471-.802-1.33-1.042-2.545-1.042h-9.27zM54.38 5.397c-.573-.292-.832-.316-1.356-.177-.548.146-1.738.553-2.046.722-.147.08-.17.21-.16.367.057.928.711 1.532 1.793 2.083l8.261 4.209c.574.292.833.318 1.356.178.548-.146 1.739-.553 2.047-.722.146-.08.17-.212.16-.367-.056-.929-.712-1.532-1.795-2.084l-8.26-4.209zM47.476.562C47.35.486 47.23.449 47.1.538c-.273.186-1.125 1.013-1.483 1.411-.341.38-.431.609-.431 1.216v11.872c0 1.147.226 1.957.982 2.401.126.075.248.112.378.023.273-.187 1.125-1.013 1.483-1.411.341-.38.43-.608.43-1.216V2.96c0-1.145-.226-1.954-.982-2.398M69.086.562c-.127-.076-.247-.113-.377-.024-.273.186-1.125 1.013-1.483 1.411-.342.38-.432.609-.432 1.216v11.872c0 1.147.227 1.957.983 2.401.126.075.248.112.378.023.273-.187 1.125-1.013 1.482-1.411.342-.38.432-.608.432-1.216V2.96c0-1.145-.227-1.954-.983-2.398M9.196 5.397c-.574-.292-.832-.316-1.356-.177-.549.146-1.739.553-2.047.722-.147.08-.17.21-.159.367.056.928.71 1.532 1.793 2.083l8.26 4.209c.574.292.833.318 1.356.178.548-.146 1.739-.553 2.047-.722.147-.08.17-.212.16-.367-.056-.929-.711-1.532-1.794-2.084l-8.26-4.209zM2.291.562C2.165.486 2.045.449 1.915.538 1.64.724.789 1.551.43 1.95.09 2.329 0 2.558 0 3.165v11.872c0 1.147.227 1.957.983 2.401.126.075.247.112.377.023.274-.187 1.126-1.013 1.483-1.411.341-.38.431-.608.431-1.216V2.96c0-1.145-.226-1.954-.983-2.398M23.901.562c-.127-.076-.247-.113-.377-.024-.273.186-1.125 1.013-1.483 1.411-.341.38-.431.609-.431 1.216v11.872c0 1.147.227 1.957.982 2.401.127.075.248.112.378.023.273-.187 1.125-1.013 1.483-1.411.341-.38.43-.608.43-1.216V2.96c0-1.145-.225-1.954-.982-2.398" mask="url(#m3p5isyypb)"/>
                        <path stroke="#FFF" stroke-width=".5" d="M154.567 0L154.567 17.512" mask="url(#m3p5isyypb)"/>
                        <path fill="#FFF" d="M170.127 15.263h3.986c1.798 0 3.203-.599 4.216-1.82 1.014-1.221 1.522-2.788 1.522-4.7 0-1.89-.508-3.434-1.522-4.632-.99-1.221-2.396-1.82-4.193-1.82h-4.01v12.972zm-2.12 2.028V.263h6.267c2.396 0 4.286.76 5.692 2.304 1.405 1.544 2.097 3.618 2.097 6.244 0 2.604-.715 4.678-2.143 6.199-1.43 1.52-3.387 2.28-5.876 2.28h-6.037zM193.343 7.913c-.853-.899-1.89-1.36-3.11-1.36-1.221 0-2.259.461-3.111 1.36-.853.899-1.268 1.959-1.268 3.203 0 1.267.415 2.35 1.268 3.249.852.898 1.89 1.336 3.11 1.336 1.221 0 2.258-.438 3.111-1.336.853-.899 1.267-1.982 1.267-3.25 0-1.243-.414-2.303-1.267-3.202m-7.742-1.36c1.221-1.267 2.765-1.889 4.631-1.889s3.388.622 4.609 1.89c1.22 1.244 1.843 2.764 1.843 4.562 0 1.82-.599 3.364-1.82 4.608-1.222 1.244-2.766 1.867-4.632 1.867-1.866 0-3.41-.623-4.63-1.867-1.222-1.244-1.821-2.788-1.821-4.608 0-1.798.599-3.318 1.82-4.562M199.954 15.77c-1.22-1.22-1.82-2.765-1.82-4.631 0-1.89.622-3.433 1.844-4.654 1.244-1.222 2.834-1.82 4.77-1.82 2.419 0 4.63 1.266 5.575 3.202l-1.705.99c-.852-1.405-2.28-2.303-3.87-2.303-1.314 0-2.397.437-3.25 1.313-.852.875-1.29 1.958-1.29 3.272 0 1.29.415 2.373 1.244 3.249.853.852 1.913 1.29 3.18 1.29.784 0 1.544-.208 2.282-.645.737-.438 1.29-.968 1.635-1.613l1.705.99c-1.013 1.867-3.226 3.157-5.622 3.157-1.912 0-3.456-.599-4.678-1.797M213.369 16.185c-.944-.945-1.405-2.235-1.405-3.825V4.964h2.05v7.327c0 2.097 1.175 3.387 3.18 3.387 2.004 0 3.18-1.29 3.18-3.387V4.964h2.05v7.396c0 3.226-1.981 5.23-5.23 5.23-1.59 0-2.88-.46-3.825-1.405M242.937 6.093c.876.967 1.313 2.258 1.313 3.894v7.304h-2.05v-7.005c0-2.396-1.176-3.733-3.042-3.733-2.005 0-3.364 1.545-3.364 3.78v6.958h-2.05v-6.959c0-2.373-1.152-3.779-3.065-3.779-2.005 0-3.387 1.521-3.387 3.826v6.912h-2.05V4.964h2.004v1.82c.738-1.314 2.074-2.143 3.71-2.143 1.681 0 3.203.853 3.917 2.304.83-1.382 2.557-2.304 4.493-2.304 1.497 0 2.696.484 3.571 1.452M248.517 10.148h7.787c-.114-2.212-1.704-3.618-3.755-3.618-2.12 0-3.687 1.475-4.032 3.618m9.884 1.843h-9.884c.345 2.143 1.751 3.664 4.424 3.664 1.474 0 3.179-.576 4.354-1.405l.876 1.59c-1.198.944-3.226 1.727-5.277 1.727-4.63 0-6.544-3.248-6.544-6.474 0-1.867.576-3.388 1.729-4.609 1.152-1.22 2.65-1.82 4.47-1.82 1.728 0 3.156.553 4.263 1.682 1.106 1.13 1.659 2.65 1.659 4.562 0 .162-.024.53-.07 1.083M260.716 17.29V4.965h2.005v1.75c.783-1.382 2.097-2.073 3.917-2.073 1.383 0 2.534.438 3.48 1.337.944.898 1.405 2.165 1.405 3.847v7.466h-2.05v-6.866c0-2.489-1.314-3.871-3.227-3.871-1.037 0-1.866.368-2.511 1.083-.646.714-.968 1.658-.968 2.788v6.866h-2.05zM281.939 16.554c-.875.69-1.958 1.036-3.226 1.036-2.58 0-3.894-1.659-3.894-4.585V6.738h-2.19V4.964h2.213V.609h2.028v4.355h4.4v1.774h-4.4v6.474c0 1.66.668 2.49 2.027 2.49.715 0 1.452-.254 2.236-.738l.806 1.59z" mask="url(#m3p5isyypb)"/>
                    </g>
                </g>
            </g>
        </g>
    </g>
</svg>
